<?xml version="1.0" standalone="no"?>
<!DOCTYPE svg PUBLIC "-//W3C//DTD SVG 20010904//EN"
 "http://www.w3.org/TR/2001/REC-SVG-20010904/DTD/svg10.dtd">
<svg version="1.0" xmlns="http://www.w3.org/2000/svg"
 width="478.000000pt" height="478.000000pt" viewBox="0 0 478.000000 478.000000"
 preserveAspectRatio="xMidYMid meet">
<metadata>
Created by potrace 1.14, written by Peter Selinger 2001-2017
</metadata>
<g transform="translate(0.000000,478.000000) scale(0.100000,-0.100000)"
fill="#000000" stroke="none">
<path d="M2165 4723 c-277 -26 -596 -115 -850 -237 -663 -319 -1069 -846
-1172 -1522 -22 -150 -22 -431 1 -589 39 -274 122 -546 236 -780 104 -212 203
-358 373 -548 l70 -78 -96 -348 c-54 -192 -97 -358 -97 -371 0 -37 28 -85 62
-105 69 -40 270 -14 543 70 285 89 536 216 676 342 106 96 84 259 -44 319 -93
43 -152 31 -265 -54 -41 -30 -115 -76 -165 -102 -108 -56 -264 -117 -274 -106
-4 4 3 44 15 89 62 225 92 351 88 366 -2 9 -7 29 -11 45 -4 18 -51 75 -128
155 -67 69 -143 153 -168 186 -214 279 -355 616 -405 971 -22 160 -15 447 15
582 84 380 281 685 598 923 380 287 904 439 1373 400 260 -22 475 -74 686
-166 527 -227 885 -640 999 -1150 24 -107 30 -387 11 -510 -67 -439 -333 -813
-716 -1009 -116 -60 -245 -106 -372 -133 -66 -14 -128 -18 -303 -18 -202 0
-229 3 -330 27 -213 50 -442 156 -606 280 -342 258 -547 668 -526 1052 8 137
25 205 84 324 107 219 301 334 483 288 78 -20 144 -58 257 -149 177 -143 197
-147 293 -64 133 114 167 140 230 172 175 89 330 61 485 -87 265 -251 241
-681 -51 -918 -36 -29 -115 -81 -177 -116 -144 -81 -153 -87 -177 -134 -58
-114 9 -252 137 -280 110 -25 346 76 524 225 420 351 468 1020 102 1437 -116
133 -257 228 -416 281 -85 28 -103 31 -232 31 -117 1 -153 -3 -218 -22 -88
-25 -189 -74 -261 -125 l-49 -35 -57 39 c-215 146 -475 187 -710 110 -135 -44
-238 -107 -341 -210 -232 -232 -331 -502 -316 -861 16 -380 160 -733 420
-1030 229 -261 570 -467 942 -569 534 -147 1117 -58 1557 238 193 130 338 275
469 470 454 673 400 1562 -134 2198 -366 435 -926 727 -1533 798 -117 14 -419
18 -529 8z"/>
</g>
</svg>
