<svg width="255" height="51" viewBox="0 0 255 51" fill="none" xmlns="http://www.w3.org/2000/svg">
<path d="M3.88691 50C2.94824 50 2.15891 49.68 1.51891 49.04C0.878905 48.4 0.558905 47.6107 0.558905 46.672V3.344C0.558905 2.36266 0.878905 1.57333 1.51891 0.975998C2.15891 0.335999 2.94824 0.0159988 3.88691 0.0159988H15.4069C18.6069 0.0159988 21.4442 0.698666 23.9189 2.064C26.3936 3.38666 28.3136 5.22133 29.6789 7.568C31.0869 9.91466 31.7909 12.6453 31.7909 15.76C31.7909 18.6613 31.0869 21.2427 29.6789 23.504C28.3136 25.7653 26.3936 27.536 23.9189 28.816C21.4442 30.096 18.6069 30.736 15.4069 30.736H7.21491V46.672C7.21491 47.6107 6.89491 48.4 6.25491 49.04C5.65757 49.68 4.86824 50 3.88691 50ZM30.4469 50C29.8496 50 29.2949 49.872 28.7829 49.616C28.3136 49.36 27.9082 48.9547 27.5669 48.4L16.0469 29.84L22.5109 27.984L33.0069 44.88C33.7749 46.1173 33.8816 47.2907 33.3269 48.4C32.7722 49.4667 31.8122 50 30.4469 50ZM7.21491 24.592H15.4069C17.3696 24.592 19.0976 24.2293 20.5909 23.504C22.0842 22.736 23.2576 21.6907 24.1109 20.368C24.9642 19.0027 25.3909 17.4667 25.3909 15.76C25.3909 13.8827 24.9642 12.2187 24.1109 10.768C23.2576 9.31733 22.0842 8.18667 20.5909 7.376C19.0976 6.56533 17.3696 6.16 15.4069 6.16H7.21491V24.592ZM57.5724 50.256C54.5857 50.256 51.8124 49.808 49.2524 48.912C46.7351 47.9733 44.7724 46.8 43.3644 45.392C42.7244 44.7093 42.4471 43.9413 42.5324 43.088C42.6604 42.192 43.0871 41.4667 43.8124 40.912C44.6657 40.2293 45.4977 39.952 46.3084 40.08C47.1617 40.1653 47.8871 40.528 48.4844 41.168C49.2097 41.9787 50.3617 42.7467 51.9404 43.472C53.5617 44.1547 55.3537 44.496 57.3164 44.496C59.7911 44.496 61.6684 44.0907 62.9484 43.28C64.2711 42.4693 64.9537 41.424 64.9964 40.144C65.0391 38.864 64.4204 37.7547 63.1404 36.816C61.9031 35.8773 59.6204 35.1093 56.2924 34.512C51.9831 33.6587 48.8471 32.3787 46.8844 30.672C44.9644 28.9653 44.0044 26.8747 44.0044 24.4C44.0044 22.224 44.6444 20.432 45.9244 19.024C47.2044 17.5733 48.8471 16.5067 50.8524 15.824C52.8577 15.0987 54.9484 14.736 57.1244 14.736C59.9404 14.736 62.4364 15.184 64.6124 16.08C66.7884 16.976 68.5164 18.2133 69.7964 19.792C70.3937 20.4747 70.6711 21.2 70.6284 21.968C70.5857 22.6933 70.2231 23.312 69.5404 23.824C68.8577 24.2933 68.0471 24.4427 67.1084 24.272C66.1697 24.1013 65.3804 23.7173 64.7404 23.12C63.6737 22.096 62.5217 21.392 61.2844 21.008C60.0471 20.624 58.6177 20.432 56.9964 20.432C55.1191 20.432 53.5191 20.752 52.1964 21.392C50.9164 22.032 50.2764 22.9707 50.2764 24.208C50.2764 24.976 50.4684 25.68 50.8524 26.32C51.2791 26.9173 52.0897 27.472 53.2844 27.984C54.4791 28.4533 56.2284 28.9227 58.5324 29.392C61.7324 30.032 64.2497 30.8427 66.0844 31.824C67.9617 32.8053 69.3057 33.9573 70.1164 35.28C70.9271 36.56 71.3324 38.0533 71.3324 39.76C71.3324 41.7227 70.7991 43.4933 69.7324 45.072C68.7084 46.6507 67.1724 47.9093 65.1244 48.848C63.1191 49.7867 60.6017 50.256 57.5724 50.256ZM98.6584 50.256C95.5437 50.256 92.7491 49.488 90.2744 47.952C87.7997 46.3733 85.8371 44.2613 84.3864 41.616C82.9784 38.928 82.2744 35.8987 82.2744 32.528C82.2744 29.1573 83.0424 26.128 84.5784 23.44C86.1571 20.752 88.2691 18.64 90.9144 17.104C93.6024 15.5253 96.6104 14.736 99.9384 14.736C103.266 14.736 106.253 15.5253 108.898 17.104C111.544 18.64 113.634 20.752 115.17 23.44C116.749 26.128 117.538 29.1573 117.538 32.528H115.042C115.042 35.8987 114.317 38.928 112.866 41.616C111.458 44.2613 109.517 46.3733 107.042 47.952C104.568 49.488 101.773 50.256 98.6584 50.256ZM99.9384 44.496C102.114 44.496 104.056 43.984 105.762 42.96C107.469 41.8933 108.813 40.464 109.794 38.672C110.776 36.8373 111.266 34.7893 111.266 32.528C111.266 30.224 110.776 28.176 109.794 26.384C108.813 24.5493 107.469 23.12 105.762 22.096C104.056 21.0293 102.114 20.496 99.9384 20.496C97.8051 20.496 95.8637 21.0293 94.1144 22.096C92.4077 23.12 91.0424 24.5493 90.0184 26.384C89.0371 28.176 88.5464 30.224 88.5464 32.528C88.5464 34.7893 89.0371 36.8373 90.0184 38.672C91.0424 40.464 92.4077 41.8933 94.1144 42.96C95.8637 43.984 97.8051 44.496 99.9384 44.496ZM114.274 50.064C113.336 50.064 112.546 49.7653 111.906 49.168C111.309 48.528 111.01 47.7387 111.01 46.8V37.008L112.226 30.224L117.538 32.528V46.8C117.538 47.7387 117.218 48.528 116.578 49.168C115.981 49.7653 115.213 50.064 114.274 50.064ZM140.054 50C138.177 50 136.513 49.488 135.062 48.464C133.611 47.44 132.481 46.0533 131.67 44.304C130.859 42.512 130.454 40.464 130.454 38.16V3.216C130.454 2.27733 130.753 1.50933 131.35 0.911999C131.947 0.314665 132.715 0.0159988 133.654 0.0159988C134.593 0.0159988 135.361 0.314665 135.958 0.911999C136.555 1.50933 136.854 2.27733 136.854 3.216V38.16C136.854 39.7387 137.153 41.04 137.75 42.064C138.347 43.088 139.115 43.6 140.054 43.6H141.654C142.507 43.6 143.19 43.8987 143.702 44.496C144.257 45.0933 144.534 45.8613 144.534 46.8C144.534 47.7387 144.129 48.5067 143.318 49.104C142.507 49.7013 141.462 50 140.182 50H140.054ZM169.993 50.256C166.879 50.256 164.084 49.488 161.609 47.952C159.135 46.3733 157.172 44.2613 155.721 41.616C154.313 38.928 153.609 35.8987 153.609 32.528C153.609 29.1573 154.377 26.128 155.913 23.44C157.492 20.752 159.604 18.64 162.249 17.104C164.937 15.5253 167.945 14.736 171.273 14.736C174.601 14.736 177.588 15.5253 180.233 17.104C182.879 18.64 184.969 20.752 186.505 23.44C188.084 26.128 188.873 29.1573 188.873 32.528H186.377C186.377 35.8987 185.652 38.928 184.201 41.616C182.793 44.2613 180.852 46.3733 178.377 47.952C175.903 49.488 173.108 50.256 169.993 50.256ZM171.273 44.496C173.449 44.496 175.391 43.984 177.097 42.96C178.804 41.8933 180.148 40.464 181.129 38.672C182.111 36.8373 182.601 34.7893 182.601 32.528C182.601 30.224 182.111 28.176 181.129 26.384C180.148 24.5493 178.804 23.12 177.097 22.096C175.391 21.0293 173.449 20.496 171.273 20.496C169.14 20.496 167.199 21.0293 165.449 22.096C163.743 23.12 162.377 24.5493 161.353 26.384C160.372 28.176 159.881 30.224 159.881 32.528C159.881 34.7893 160.372 36.8373 161.353 38.672C162.377 40.464 163.743 41.8933 165.449 42.96C167.199 43.984 169.14 44.496 171.273 44.496ZM185.609 50.064C184.671 50.064 183.881 49.7653 183.241 49.168C182.644 48.528 182.345 47.7387 182.345 46.8V37.008L183.561 30.224L188.873 32.528V46.8C188.873 47.7387 188.553 48.528 187.913 49.168C187.316 49.7653 186.548 50.064 185.609 50.064Z" fill="#F46A6A"/>
<path d="M201.593 50.576C200.921 50.576 200.333 50.336 199.829 49.856C199.349 49.352 199.109 48.764 199.109 48.092C199.109 47.396 199.349 46.808 199.829 46.328C200.333 45.824 200.921 45.572 201.593 45.572C202.289 45.572 202.877 45.824 203.357 46.328C203.837 46.808 204.077 47.396 204.077 48.092C204.077 48.764 203.837 49.352 203.357 49.856C202.877 50.336 202.289 50.576 201.593 50.576ZM220.575 50.144C218.655 50.144 216.939 49.712 215.427 48.848C213.939 47.96 212.763 46.772 211.899 45.284C211.059 43.772 210.639 42.068 210.639 40.172C210.639 38.228 211.059 36.5 211.899 34.988C212.739 33.476 213.891 32.3 215.355 31.46C216.819 30.596 218.499 30.164 220.395 30.164C221.811 30.164 223.107 30.44 224.283 30.992C225.459 31.52 226.515 32.324 227.451 33.404C227.787 33.788 227.907 34.184 227.811 34.592C227.715 35 227.451 35.36 227.019 35.672C226.683 35.912 226.311 35.996 225.903 35.924C225.495 35.828 225.123 35.612 224.787 35.276C223.611 34.028 222.147 33.404 220.395 33.404C219.171 33.404 218.091 33.692 217.155 34.268C216.219 34.82 215.487 35.6 214.959 36.608C214.431 37.616 214.167 38.804 214.167 40.172C214.167 41.468 214.431 42.62 214.959 43.628C215.511 44.636 216.267 45.44 217.227 46.04C218.187 46.616 219.303 46.904 220.575 46.904C221.415 46.904 222.147 46.808 222.771 46.616C223.419 46.4 224.007 46.076 224.535 45.644C224.919 45.332 225.315 45.164 225.723 45.14C226.131 45.092 226.491 45.2 226.803 45.464C227.211 45.8 227.439 46.184 227.487 46.616C227.535 47.024 227.391 47.396 227.055 47.732C225.327 49.34 223.167 50.144 220.575 50.144ZM244.716 50.144C242.772 50.144 241.056 49.724 239.568 48.884C238.08 48.02 236.904 46.844 236.04 45.356C235.2 43.844 234.78 42.116 234.78 40.172C234.78 38.204 235.2 36.476 236.04 34.988C236.904 33.476 238.08 32.3 239.568 31.46C241.056 30.596 242.772 30.164 244.716 30.164C246.636 30.164 248.34 30.596 249.828 31.46C251.316 32.3 252.48 33.476 253.32 34.988C254.184 36.476 254.616 38.204 254.616 40.172C254.616 42.116 254.196 43.844 253.356 45.356C252.516 46.844 251.352 48.02 249.864 48.884C248.376 49.724 246.66 50.144 244.716 50.144ZM244.716 46.904C245.964 46.904 247.068 46.616 248.028 46.04C248.988 45.464 249.732 44.672 250.26 43.664C250.812 42.656 251.088 41.492 251.088 40.172C251.088 38.852 250.812 37.688 250.26 36.68C249.732 35.648 248.988 34.844 248.028 34.268C247.068 33.692 245.964 33.404 244.716 33.404C243.468 33.404 242.364 33.692 241.404 34.268C240.444 34.844 239.688 35.648 239.136 36.68C238.584 37.688 238.308 38.852 238.308 40.172C238.308 41.492 238.584 42.656 239.136 43.664C239.688 44.672 240.444 45.464 241.404 46.04C242.364 46.616 243.468 46.904 244.716 46.904Z" fill="#101010"/>
</svg>
